<?xml version="1.0" standalone="no"?>
<!DOCTYPE svg PUBLIC "-//W3C//DTD SVG 20010904//EN"
 "http://www.w3.org/TR/2001/REC-SVG-20010904/DTD/svg10.dtd">
<svg version="1.0" xmlns="http://www.w3.org/2000/svg"
 width="278.000000pt" height="144.000000pt" viewBox="0 0 278.000000 144.000000"
 preserveAspectRatio="xMidYMid meet">

<g transform="translate(0.000000,144.000000) scale(0.100000,-0.100000)"
fill="#000000" stroke="none">
<path d="M515 990 c-41 -42 -48 -53 -39 -68 18 -27 44 -26 75 4 l29 28 29 -28
c31 -30 56 -30 68 0 6 16 -81 114 -102 114 -6 0 -33 -23 -60 -50z"/>
<path d="M1870 1021 c-13 -25 -4 -48 21 -56 38 -12 65 35 37 63 -18 18 -46 14
-58 -7z"/>
<path d="M1990 895 c0 -24 -5 -35 -15 -35 -9 0 -15 -9 -15 -25 0 -16 6 -25 15
-25 12 0 15 -18 15 -101 0 -98 1 -101 29 -130 34 -33 79 -38 136 -15 33 14 34
17 23 41 -8 18 -16 24 -27 19 -75 -32 -91 -15 -91 97 l0 89 48 0 47 0 58 -131
c31 -71 57 -136 57 -143 0 -26 -41 -65 -75 -72 -30 -5 -35 -10 -35 -35 0 -24
4 -29 24 -29 35 0 77 18 104 43 32 30 52 71 116 239 30 79 58 151 61 161 6 14
1 17 -33 17 l-41 0 -37 -114 c-21 -63 -41 -113 -44 -111 -4 2 -26 54 -50 115
l-43 110 -79 0 -78 0 0 35 c0 33 -2 35 -35 35 -33 0 -35 -2 -35 -35z"/>
<path d="M412 888 c-7 -7 -12 -17 -12 -23 0 -5 99 -109 220 -230 l220 -220 22
23 23 22 -220 220 c-121 121 -225 220 -230 220 -6 0 -16 -5 -23 -12z"/>
<path d="M552 888 c-7 -7 -12 -17 -12 -23 0 -5 69 -79 154 -164 155 -154 176
-168 193 -125 4 11 -37 59 -148 170 -85 85 -159 154 -164 154 -6 0 -16 -5 -23
-12z"/>
<path d="M692 888 c-17 -17 -15 -32 6 -52 18 -15 20 -15 37 5 15 15 17 24 9
37 -14 22 -36 26 -52 10z"/>
<path d="M1092 840 c-42 -26 -62 -68 -62 -130 0 -61 20 -107 58 -135 21 -15
41 -20 87 -18 33 0 81 2 108 2 l47 1 0 148 0 149 -103 1 c-85 1 -108 -2 -135
-18z m137 -41 l31 -11 0 -79 c0 -89 -8 -99 -79 -99 -53 0 -81 34 -81 99 1 48
11 70 45 89 25 14 44 15 84 1z"/>
<path d="M1370 710 l0 -150 35 0 35 0 0 99 c0 84 3 102 21 125 24 31 48 33 80
7 21 -17 24 -28 27 -125 l4 -107 32 3 31 3 5 108 c4 93 8 111 24 123 26 19 49
18 75 -3 18 -16 21 -30 23 -123 l3 -105 33 -3 32 -3 0 121 c0 121 0 122 -29
151 -25 25 -37 29 -83 29 -36 0 -61 -6 -78 -19 -24 -19 -25 -19 -48 0 -27 21
-100 26 -132 9 -13 -7 -21 -7 -25 0 -3 5 -19 10 -36 10 l-29 0 0 -150z"/>
<path d="M1870 710 l0 -150 35 0 35 0 0 150 0 150 -35 0 -35 0 0 -150z"/>
<path d="M342 818 c-7 -7 -12 -17 -12 -23 0 -5 87 -97 194 -204 140 -140 199
-192 210 -188 44 17 30 38 -165 233 -107 107 -199 194 -204 194 -6 0 -16 -5
-23 -12z"/>
<path d="M760 816 c-27 -33 18 -72 48 -42 13 13 14 20 6 34 -15 23 -38 26 -54
8z"/>
<path d="M272 748 c-7 -7 -12 -17 -12 -23 0 -6 38 -48 84 -94 84 -84 108 -94
123 -55 4 11 -19 41 -78 100 -46 46 -88 84 -94 84 -6 0 -16 -5 -23 -12z"/>
<path d="M830 746 c-27 -33 18 -72 48 -42 13 13 14 20 6 34 -15 23 -38 26 -54
8z"/>
<path d="M270 605 c-28 -34 18 -69 50 -40 19 17 19 19 4 37 -21 22 -37 23 -54
3z"/>
<path d="M317 512 c-41 -42 -47 -66 -19 -81 15 -8 27 -2 63 35 36 37 42 47 33
62 -18 28 -37 25 -77 -16z"/>
<path d="M442 497 c-53 -54 -60 -78 -24 -92 11 -4 33 12 71 50 47 46 54 58 45
73 -19 30 -38 24 -92 -31z"/>
</g>
</svg>
